<svg width="177" height="70" viewBox="0 0 177 70" fill="none" xmlns="http://www.w3.org/2000/svg">
<g id="Socials">
<g id="Socmed/Facebook">
<g id="Ellipse 176" filter="url(#filter0_d_16_16)">
<circle cx="34.8001" cy="22.1837" r="16.7999" fill="#F53838"/>
</g>
<path id="Vector" d="M35 5C25.611 5 18 12.611 18 22C18 31.389 25.611 39 35 39C44.389 39 52 31.389 52 22C52 12.611 44.389 5 35 5ZM39.0269 16.7477H36.4716C36.1688 16.7477 35.8323 17.1461 35.8323 17.6756V19.5208H39.0286L38.5452 22.1523H35.8323V30.052H32.8166V22.1523H30.0806V19.5208H32.8166V17.9731C32.8166 15.7525 34.3572 13.948 36.4716 13.948H39.0269V16.7477Z" fill="white"/>
</g>
<g id="Socmed/Twitter">
<g id="Ellipse 177" filter="url(#filter1_d_16_16)">
<ellipse cx="88.2047" cy="22.1837" rx="16.6046" ry="16.7999" fill="#F53838"/>
</g>
<path id="Vector_2" d="M88 5C78.611 5 71 12.611 71 22C71 31.389 78.611 39 88 39C97.389 39 105 31.389 105 22C105 12.611 97.389 5 88 5ZM94.9151 18.9258C94.9222 19.071 94.924 19.2163 94.924 19.3579C94.924 23.785 91.5576 28.8868 85.3986 28.8868C83.5787 28.8898 81.7967 28.3671 80.2668 27.3816C80.5271 27.4134 80.7945 27.4258 81.0654 27.4258C82.6344 27.4258 84.0776 26.8928 85.2233 25.9932C84.5251 25.9795 83.8486 25.7483 83.288 25.3319C82.7274 24.9154 82.3108 24.3344 82.096 23.6699C82.5975 23.7652 83.114 23.7453 83.6066 23.6115C82.8487 23.4582 82.1672 23.0476 81.6776 22.4492C81.188 21.8508 80.9204 21.1015 80.9202 20.3283V20.2876C81.3718 20.5373 81.8889 20.6896 82.4378 20.7073C81.7274 20.2344 81.2244 19.5079 81.0318 18.6764C80.8393 17.8449 80.9717 16.9713 81.4019 16.2342C82.2429 17.2683 83.2918 18.1143 84.4806 18.7174C85.6694 19.3205 86.9715 19.6672 88.3028 19.7351C88.1336 19.0167 88.2064 18.2625 88.51 17.5897C88.8136 16.917 89.331 16.3634 89.9817 16.0151C90.6324 15.6667 91.3799 15.5431 92.1081 15.6634C92.8363 15.7837 93.5044 16.1412 94.0084 16.6804C94.7578 16.5322 95.4764 16.2573 96.1334 15.8676C95.8837 16.6435 95.3608 17.3023 94.6619 17.7217C95.3257 17.6417 95.9738 17.4633 96.585 17.1922C96.1361 17.8649 95.5706 18.452 94.9151 18.9258Z" fill="white"/>
</g>
<g id="Socmed/Instagram">
<g id="Ellipse 178" filter="url(#filter2_d_16_16)">
<ellipse cx="142.099" cy="22.1837" rx="16.8994" ry="16.7999" fill="#F53838"/>
</g>
<path id="Vector_3" d="M147.312 22C147.312 23.409 146.753 24.7602 145.757 25.7565C144.76 26.7528 143.409 27.3125 142 27.3125C140.591 27.3125 139.24 26.7528 138.243 25.7565C137.247 24.7602 136.687 23.409 136.687 22C136.687 21.6972 136.719 21.4015 136.774 21.1146H134.917V28.1926C134.917 28.6849 135.315 29.0833 135.807 29.0833H148.194C148.43 29.0829 148.656 28.9888 148.823 28.8218C148.99 28.6548 149.083 28.4285 149.083 28.1926V21.1146H147.226C147.281 21.4015 147.312 21.6972 147.312 22ZM142 25.5417C142.465 25.5415 142.926 25.4498 143.356 25.2717C143.785 25.0935 144.176 24.8325 144.505 24.5035C144.834 24.1744 145.094 23.7838 145.272 23.354C145.45 22.9241 145.542 22.4634 145.542 21.9982C145.542 21.533 145.45 21.0724 145.272 20.6426C145.094 20.2129 144.832 19.8224 144.503 19.4935C144.174 19.1647 143.784 18.9038 143.354 18.7259C142.924 18.548 142.463 18.4564 141.998 18.4566C141.059 18.4568 140.158 18.8303 139.494 19.4948C138.829 20.1593 138.456 21.0605 138.457 22C138.457 22.9395 138.83 23.8405 139.495 24.5047C140.159 25.1689 141.06 25.5419 142 25.5417ZM146.25 18.2812H148.373C148.514 18.2812 148.65 18.2253 148.75 18.1258C148.849 18.0262 148.906 17.8911 148.906 17.75V15.6268C148.906 15.4854 148.85 15.3498 148.75 15.2499C148.65 15.1499 148.515 15.0937 148.373 15.0937H146.25C146.109 15.0937 145.973 15.1499 145.873 15.2499C145.773 15.3498 145.717 15.4854 145.717 15.6268V17.75C145.719 18.0422 145.958 18.2812 146.25 18.2812ZM142 5C137.491 5 133.167 6.79107 129.979 9.97918C126.791 13.1673 125 17.4913 125 22C125 26.5087 126.791 30.8327 129.979 34.0208C133.167 37.2089 137.491 39 142 39C144.232 39 146.443 38.5603 148.506 37.706C150.568 36.8516 152.442 35.5994 154.021 34.0208C155.599 32.4422 156.852 30.5682 157.706 28.5056C158.56 26.4431 159 24.2325 159 22C159 19.7675 158.56 17.5569 157.706 15.4944C156.852 13.4318 155.599 11.5578 154.021 9.97918C152.442 8.40059 150.568 7.14838 148.506 6.29405C146.443 5.43972 144.232 5 142 5ZM150.854 28.8868C150.854 29.9688 149.969 30.8542 148.887 30.8542H135.113C134.031 30.8542 133.146 29.9688 133.146 28.8868V15.1132C133.146 14.0312 134.031 13.1458 135.113 13.1458H148.887C149.969 13.1458 150.854 14.0312 150.854 15.1132V28.8868Z" fill="white"/>
</g>
</g>
<defs>
<filter id="filter0_d_16_16" x="0.00012207" y="0.383789" width="69.5999" height="69.5999" filterUnits="userSpaceOnUse" color-interpolation-filters="sRGB">
<feFlood flood-opacity="0" result="BackgroundImageFix"/>
<feColorMatrix in="SourceAlpha" type="matrix" values="0 0 0 0 0 0 0 0 0 0 0 0 0 0 0 0 0 0 127 0" result="hardAlpha"/>
<feOffset dy="13"/>
<feGaussianBlur stdDeviation="9"/>
<feColorMatrix type="matrix" values="0 0 0 0 0.0658854 0 0 0 0 0.0730469 0 0 0 0 0.1375 0 0 0 0.08 0"/>
<feBlend mode="normal" in2="BackgroundImageFix" result="effect1_dropShadow_16_16"/>
<feBlend mode="normal" in="SourceGraphic" in2="effect1_dropShadow_16_16" result="shape"/>
</filter>
<filter id="filter1_d_16_16" x="53.6001" y="0.383789" width="69.2093" height="69.5999" filterUnits="userSpaceOnUse" color-interpolation-filters="sRGB">
<feFlood flood-opacity="0" result="BackgroundImageFix"/>
<feColorMatrix in="SourceAlpha" type="matrix" values="0 0 0 0 0 0 0 0 0 0 0 0 0 0 0 0 0 0 127 0" result="hardAlpha"/>
<feOffset dy="13"/>
<feGaussianBlur stdDeviation="9"/>
<feColorMatrix type="matrix" values="0 0 0 0 0.0658854 0 0 0 0 0.0730469 0 0 0 0 0.1375 0 0 0 0.08 0"/>
<feBlend mode="normal" in2="BackgroundImageFix" result="effect1_dropShadow_16_16"/>
<feBlend mode="normal" in="SourceGraphic" in2="effect1_dropShadow_16_16" result="shape"/>
</filter>
<filter id="filter2_d_16_16" x="107.2" y="0.383789" width="69.7988" height="69.5999" filterUnits="userSpaceOnUse" color-interpolation-filters="sRGB">
<feFlood flood-opacity="0" result="BackgroundImageFix"/>
<feColorMatrix in="SourceAlpha" type="matrix" values="0 0 0 0 0 0 0 0 0 0 0 0 0 0 0 0 0 0 127 0" result="hardAlpha"/>
<feOffset dy="13"/>
<feGaussianBlur stdDeviation="9"/>
<feColorMatrix type="matrix" values="0 0 0 0 0.0658854 0 0 0 0 0.0730469 0 0 0 0 0.1375 0 0 0 0.08 0"/>
<feBlend mode="normal" in2="BackgroundImageFix" result="effect1_dropShadow_16_16"/>
<feBlend mode="normal" in="SourceGraphic" in2="effect1_dropShadow_16_16" result="shape"/>
</filter>
</defs>
</svg>
